<?xml version="1.0" encoding="UTF-8"?>
<!DOCTYPE svg PUBLIC "-//W3C//DTD SVG 1.1//EN" "http://www.w3.org/Graphics/SVG/1.1/DTD/svg11.dtd">
<svg xmlns="http://www.w3.org/2000/svg" version="1.1" width="500px" height="500px" style="shape-rendering:geometricPrecision; text-rendering:geometricPrecision; image-rendering:optimizeQuality; fill-rule:evenodd; clip-rule:evenodd" xmlns:xlink="http://www.w3.org/1999/xlink">
<g><path style="opacity:0.998" fill="#fe0032" d="M 62.5,-0.5 C 187.167,-0.5 311.833,-0.5 436.5,-0.5C 471.167,6.83333 492.167,27.8333 499.5,62.5C 499.5,187.167 499.5,311.833 499.5,436.5C 492.167,471.167 471.167,492.167 436.5,499.5C 311.833,499.5 187.167,499.5 62.5,499.5C 27.8333,492.167 6.83333,471.167 -0.5,436.5C -0.5,311.833 -0.5,187.167 -0.5,62.5C 6.83333,27.8333 27.8333,6.83333 62.5,-0.5 Z"/></g>
<g><path style="opacity:1" fill="#fefffe" d="M 229.5,49.5 C 297.7,44.8667 354.867,67.5333 401,117.5C 452.034,181.388 463.034,251.722 434,328.5C 401.238,398.57 346.405,438.736 269.5,449C 201.281,454.126 144.114,431.626 98,381.5C 46.9662,317.612 35.9662,247.278 65,170.5C 97.9201,100.418 152.753,60.0845 229.5,49.5 Z"/></g>
<g><path style="opacity:1" fill="#fe0032" d="M 195.5,99.5 C 232.073,99.1704 268.573,99.5037 305,100.5C 306.491,154.083 306.991,207.75 306.5,261.5C 330.502,261.333 354.502,261.5 378.5,262C 380.753,264.425 381.586,267.258 381,270.5C 338.861,313.639 296.361,356.472 253.5,399C 250.5,399.667 247.5,399.667 244.5,399C 202.333,356.167 160.167,313.333 118,270.5C 117.07,267.15 117.903,264.317 120.5,262C 144.498,261.5 168.498,261.333 192.5,261.5C 192.333,208.832 192.5,156.166 193,103.5C 193.662,102.016 194.496,100.683 195.5,99.5 Z"/></g>
</svg>
